<svg width="132" height="27" viewBox="0 0 132 27" fill="none" xmlns="http://www.w3.org/2000/svg">
<path d="M14.1046 4.25C17.5499 4.25 20.2139 5.96429 21.7412 8.67857L24.9024 5.5C22.4516 2.10714 18.58 0 14.1046 0C6.68116 0 0.678467 5.85714 0.678467 13.5C0.678467 21.1429 6.68116 27 14.1046 27C18.5445 27 22.4516 24.8571 24.8668 21.5L21.7057 18.3214C20.2139 21.0357 17.5499 22.7143 14.1046 22.7143C8.91885 22.7143 5.01177 18.7143 5.01177 13.5C5.01177 8.28571 8.91885 4.25 14.1046 4.25Z" fill="#CCED60"/>
<path d="M128.301 0.535714H110.151V4.85714H116.971V26.4286H121.482V4.85714H128.301V0.535714Z" fill="#CCED60"/>
<path d="M88.4102 16.9286V0.535714H82.9047L76.5824 17V0.535714H71.219L64.9322 16.9643V0.535714H59.1781L49.2683 26.4286H53.7437L60.6699 9.07143V26.4286H65.3939L72.3201 9.14286V26.4286H77.1862L83.9703 9.10714V26.4286H88.8364L95.656 9.10714V26.4286H100.06V0.535714H94.5905L88.4102 16.9286Z" fill="#CCED60"/>
<path d="M108.02 0.5H103.474V26.4286H108.02V0.5Z" fill="#CCED60"/>
<path d="M38.3995 0C31.0116 0 25.0089 5.85714 25.0089 13.5C25.0089 21.1429 31.0116 27 38.4351 27C45.8585 27 51.8612 21.1429 51.8612 13.5C51.8257 5.85714 45.823 0 38.3995 0ZM38.3995 22.7143C33.3203 22.7143 29.2712 18.7143 29.2712 13.5C29.2712 8.28571 33.3203 4.25 38.3995 4.25C43.4787 4.25 47.5634 8.28571 47.5634 13.5C47.5634 18.7143 43.5143 22.7143 38.3995 22.7143Z" fill="#CCED60"/>
<path d="M128.301 20.6429C126.703 20.6429 125.424 21.8929 125.424 23.5357C125.424 25.1786 126.703 26.4286 128.301 26.4286C129.9 26.4286 131.178 25.1786 131.178 23.5357C131.178 21.8929 129.9 20.6429 128.301 20.6429Z" fill="#CCED60"/>
</svg>
